<mxfile host="65bd71144e">
    <diagram id="40ooDY36B8UPAqRXd5_9" name="PÃ¡gina-1">
        <mxGraphModel dx="1118" dy="647" grid="1" gridSize="10" guides="1" tooltips="1" connect="1" arrows="1" fold="1" page="1" pageScale="1" pageWidth="827" pageHeight="1169" background="none" math="0" shadow="0">
            <root>
                <mxCell id="0"/>
                <mxCell id="1" parent="0"/>
                <mxCell id="39" value="Cliente" style="swimlane;childLayout=stackLayout;horizontal=1;startSize=30;horizontalStack=0;rounded=1;fontSize=14;fontStyle=0;strokeWidth=2;resizeParent=0;resizeLast=1;shadow=0;dashed=0;align=center;" vertex="1" parent="1">
                    <mxGeometry x="60" y="60" width="160" height="130" as="geometry"/>
                </mxCell>
                <mxCell id="40" value="- id: Integer&#10;- cpf: String&#10;- nome: String&#10;- sobrenome: String&#10;- telefone: String&#10;- status: Integer" style="align=left;strokeColor=none;fillColor=none;spacingLeft=4;fontSize=12;verticalAlign=top;resizable=0;rotatable=0;part=1;" vertex="1" parent="39">
                    <mxGeometry y="30" width="160" height="100" as="geometry"/>
                </mxCell>
                <mxCell id="58" style="edgeStyle=none;html=1;exitX=0;exitY=0.5;exitDx=0;exitDy=0;entryX=0.5;entryY=0;entryDx=0;entryDy=0;strokeColor=default;endArrow=oval;endFill=1;" edge="1" parent="1" source="41" target="50">
                    <mxGeometry relative="1" as="geometry"/>
                </mxCell>
                <mxCell id="41" value="Estabelecimento" style="swimlane;childLayout=stackLayout;horizontal=1;startSize=30;horizontalStack=0;rounded=1;fontSize=14;fontStyle=0;strokeWidth=2;resizeParent=0;resizeLast=1;shadow=0;dashed=0;align=center;" vertex="1" parent="1">
                    <mxGeometry x="630" y="40" width="160" height="190" as="geometry"/>
                </mxCell>
                <mxCell id="42" value="- id: Integer&#10;- cnpj: String&#10;- razaoSocial: String&#10;- nomeFantasia: String&#10;- responsavel: String&#10;- telefone: String&#10;- email: String&#10;- categoria: Categoria&#10;- logo: String&#10;- status: Integer" style="align=left;strokeColor=none;fillColor=none;spacingLeft=4;fontSize=12;verticalAlign=top;resizable=0;rotatable=0;part=1;" vertex="1" parent="41">
                    <mxGeometry y="30" width="160" height="160" as="geometry"/>
                </mxCell>
                <mxCell id="43" value="Produto" style="swimlane;childLayout=stackLayout;horizontal=1;startSize=30;horizontalStack=0;rounded=1;fontSize=14;fontStyle=0;strokeWidth=2;resizeParent=0;resizeLast=1;shadow=0;dashed=0;align=center;" vertex="1" parent="1">
                    <mxGeometry x="380" y="530" width="160" height="130" as="geometry"/>
                </mxCell>
                <mxCell id="44" value="- id: Integer&#10;- descricao: String&#10;- marca: String&#10;- unidade: String&#10;- valor: Double&#10;- status: Integer" style="align=left;strokeColor=none;fillColor=none;spacingLeft=4;fontSize=12;verticalAlign=top;resizable=0;rotatable=0;part=1;" vertex="1" parent="43">
                    <mxGeometry y="30" width="160" height="100" as="geometry"/>
                </mxCell>
                <mxCell id="45" value="Categoria" style="swimlane;childLayout=stackLayout;horizontal=1;startSize=30;horizontalStack=0;rounded=1;fontSize=14;fontStyle=0;strokeWidth=2;resizeParent=0;resizeLast=1;shadow=0;dashed=0;align=center;" vertex="1" parent="1">
                    <mxGeometry x="640" y="410" width="160" height="90" as="geometry"/>
                </mxCell>
                <mxCell id="46" value="- id: Integer&#10;- descricao: String&#10;- status: Integer" style="align=left;strokeColor=none;fillColor=none;spacingLeft=4;fontSize=12;verticalAlign=top;resizable=0;rotatable=0;part=1;" vertex="1" parent="45">
                    <mxGeometry y="30" width="160" height="60" as="geometry"/>
                </mxCell>
                <mxCell id="50" value="Pedido" style="swimlane;childLayout=stackLayout;horizontal=1;startSize=30;horizontalStack=0;rounded=1;fontSize=14;fontStyle=0;strokeWidth=2;resizeParent=0;resizeLast=1;shadow=0;dashed=0;align=center;" vertex="1" parent="1">
                    <mxGeometry x="360" y="220" width="160" height="134" as="geometry"/>
                </mxCell>
                <mxCell id="51" value="- id: Integer&#10;- cliente: Cliente&#10;- itens: List&lt;ItensPedido&gt;&#10;- valorTotal: Double&#10;- dataHora: DateTime&#10;- status: Integer" style="align=left;strokeColor=none;fillColor=none;spacingLeft=4;fontSize=12;verticalAlign=top;resizable=0;rotatable=0;part=1;" vertex="1" parent="50">
                    <mxGeometry y="30" width="160" height="104" as="geometry"/>
                </mxCell>
                <mxCell id="52" value="" style="endArrow=none;html=1;rounded=0;strokeColor=default;exitX=0.556;exitY=1;exitDx=0;exitDy=0;exitPerimeter=0;entryX=0.5;entryY=0;entryDx=0;entryDy=0;" edge="1" parent="1" source="42" target="45">
                    <mxGeometry relative="1" as="geometry">
                        <mxPoint x="590" y="320" as="sourcePoint"/>
                        <mxPoint x="730" y="400" as="targetPoint"/>
                    </mxGeometry>
                </mxCell>
                <mxCell id="53" value="N" style="resizable=0;html=1;align=left;verticalAlign=bottom;" connectable="0" vertex="1" parent="52">
                    <mxGeometry x="-1" relative="1" as="geometry">
                        <mxPoint x="4" y="26" as="offset"/>
                    </mxGeometry>
                </mxCell>
                <mxCell id="54" value="1" style="resizable=0;html=1;align=right;verticalAlign=bottom;" connectable="0" vertex="1" parent="52">
                    <mxGeometry x="1" relative="1" as="geometry">
                        <mxPoint x="-5" y="-7" as="offset"/>
                    </mxGeometry>
                </mxCell>
                <mxCell id="59" value="1" style="resizable=0;html=1;align=left;verticalAlign=bottom;" connectable="0" vertex="1" parent="1">
                    <mxGeometry x="610" y="170" as="geometry"/>
                </mxCell>
                <mxCell id="60" value="N" style="resizable=0;html=1;align=left;verticalAlign=bottom;" connectable="0" vertex="1" parent="1">
                    <mxGeometry x="700" y="230" as="geometry">
                        <mxPoint x="-247" y="-23" as="offset"/>
                    </mxGeometry>
                </mxCell>
                <mxCell id="82" value="ItensPedido" style="swimlane;childLayout=stackLayout;horizontal=1;startSize=30;horizontalStack=0;rounded=1;fontSize=14;fontStyle=0;strokeWidth=2;resizeParent=0;resizeLast=1;shadow=0;dashed=0;align=center;" vertex="1" parent="1">
                    <mxGeometry x="60" y="370" width="160" height="120" as="geometry"/>
                </mxCell>
                <mxCell id="83" value="- id: Integer&#10;- produto: Produto&#10;- quantidade: Integer&#10;- totalItem: Double&#10;- status: Integer" style="align=left;strokeColor=none;fillColor=none;spacingLeft=4;fontSize=12;verticalAlign=top;resizable=0;rotatable=0;part=1;" vertex="1" parent="82">
                    <mxGeometry y="30" width="160" height="90" as="geometry"/>
                </mxCell>
                <mxCell id="87" value="" style="endArrow=none;html=1;rounded=0;strokeColor=default;entryX=0;entryY=0.5;entryDx=0;entryDy=0;" edge="1" parent="1" target="44">
                    <mxGeometry relative="1" as="geometry">
                        <mxPoint x="130" y="490" as="sourcePoint"/>
                        <mxPoint x="370" y="610" as="targetPoint"/>
                    </mxGeometry>
                </mxCell>
                <mxCell id="88" value="M" style="resizable=0;html=1;align=left;verticalAlign=bottom;" connectable="0" vertex="1" parent="87">
                    <mxGeometry x="-1" relative="1" as="geometry">
                        <mxPoint y="30" as="offset"/>
                    </mxGeometry>
                </mxCell>
                <mxCell id="89" value="N" style="resizable=0;html=1;align=right;verticalAlign=bottom;" connectable="0" vertex="1" parent="87">
                    <mxGeometry x="1" relative="1" as="geometry">
                        <mxPoint x="-20" y="10" as="offset"/>
                    </mxGeometry>
                </mxCell>
                <mxCell id="91" value="" style="endArrow=none;html=1;rounded=0;strokeColor=default;exitX=1.022;exitY=0.356;exitDx=0;exitDy=0;exitPerimeter=0;entryX=0.5;entryY=1;entryDx=0;entryDy=0;" edge="1" parent="1" source="83" target="51">
                    <mxGeometry relative="1" as="geometry">
                        <mxPoint x="270.00000000000006" y="449.97" as="sourcePoint"/>
                        <mxPoint x="440" y="340" as="targetPoint"/>
                    </mxGeometry>
                </mxCell>
                <mxCell id="92" value="M" style="resizable=0;html=1;align=left;verticalAlign=bottom;" connectable="0" vertex="1" parent="91">
                    <mxGeometry x="-1" relative="1" as="geometry">
                        <mxPoint x="16" y="18" as="offset"/>
                    </mxGeometry>
                </mxCell>
                <mxCell id="93" value="N" style="resizable=0;html=1;align=right;verticalAlign=bottom;" connectable="0" vertex="1" parent="91">
                    <mxGeometry x="1" relative="1" as="geometry">
                        <mxPoint x="-10" y="30" as="offset"/>
                    </mxGeometry>
                </mxCell>
                <mxCell id="94" value="" style="endArrow=none;html=1;rounded=0;strokeColor=default;exitX=0.5;exitY=1;exitDx=0;exitDy=0;entryX=-0.022;entryY=0.375;entryDx=0;entryDy=0;entryPerimeter=0;" edge="1" parent="1" source="40" target="51">
                    <mxGeometry relative="1" as="geometry">
                        <mxPoint x="120" y="190" as="sourcePoint"/>
                        <mxPoint x="240" y="280" as="targetPoint"/>
                    </mxGeometry>
                </mxCell>
                <mxCell id="95" value="M" style="resizable=0;html=1;align=left;verticalAlign=bottom;" connectable="0" vertex="1" parent="94">
                    <mxGeometry x="-1" relative="1" as="geometry">
                        <mxPoint x="10" y="40" as="offset"/>
                    </mxGeometry>
                </mxCell>
                <mxCell id="96" value="N" style="resizable=0;html=1;align=right;verticalAlign=bottom;" connectable="0" vertex="1" parent="94">
                    <mxGeometry x="1" relative="1" as="geometry">
                        <mxPoint x="-16" y="20" as="offset"/>
                    </mxGeometry>
                </mxCell>
            </root>
        </mxGraphModel>
    </diagram>
</mxfile>